<?xml version="1.0" encoding="UTF-8"?><svg id="Layer_1" xmlns="http://www.w3.org/2000/svg" viewBox="0 0 54 54"><defs><style>.cls-1,.cls-2{fill:none;}.cls-3{fill:#fff;}.cls-2{stroke:#d9d9d6;}.cls-4{opacity:0;}</style></defs><path class="cls-3" d="M37.61,33.92l-6.92-6.92,6.92-6.92s.05-.05,.07-.07c1-1.04,.97-2.69-.07-3.69-1.04-1-2.69-.97-3.69,.07l-6.92,6.92-6.92-6.92c-1-1.04-2.65-1.07-3.69-.07-1.04,1-1.07,2.65-.07,3.69,.02,.02,.05,.05,.07,.07l6.92,6.92-6.92,6.92s-.05,.05-.07,.07c-1,1.04-.97,2.69,.07,3.69,1.04,1,2.69,.97,3.69-.07l6.92-6.92,6.92,6.92c1,1.04,2.65,1.07,3.69,.07,1.04-1,1.07-2.65,.07-3.69-.02-.02-.05-.05-.07-.07Z"/><g id="Ellipse_12" class="cls-4"><circle class="cls-1" cx="27" cy="27" r="27"/><circle class="cls-2" cx="27" cy="27" r="26.5"/></g></svg>