<?xml version="1.0" encoding="UTF-8"?><svg id="Layer_1" xmlns="http://www.w3.org/2000/svg" viewBox="0 0 110 83.19"><defs><style>.cls-1{fill:#fff;}.cls-2{opacity:1;}</style></defs><g id="Troy_Logo"><rect id="Rectangle_1151" class="cls-1" x="15.66" y="42.02" width="80.38" height=".6"/><path id="Path_3904" class="cls-1" d="M21.38,46.43v.21c.33,.02,.88,.11,.88,.65v5.91c.1,1.22-.8,2.28-2.01,2.39s-2.28-.8-2.39-2.01c-.01-.12-.01-.25,0-.38v-5.91c0-.54,.54-.64,.88-.65v-.21c-.47,0-.96,.09-1.73,.09-.41,0-.88-.09-1.34-.09v.21c.62,.06,.71,.11,.71,.77v5.5c0,2.34,1.36,3.43,3.68,3.43s3.69-1.09,3.69-3.43v-5.5c0-.67,.09-.71,.71-.77v-.21c-.47,0-.94,.09-1.35,.09-.77,0-1.26-.09-1.72-.09Z"/><path id="Path_3905" class="cls-1" d="M32.01,46.43v.21c.82,.14,1.06,.36,1.06,1.38v5.48h-.03l-5.14-7.06c-.38,0-.71,.09-1.12,.09s-.86-.09-1.29-.09v.21c.59,.09,.77,.21,.77,.64v8.08c0,.42-.18,.55-.77,.64v.21c.5,0,1-.09,1.5-.09,.42,0,.85,.09,1.27,.09v-.21c-.82-.14-1.06-.36-1.06-1.38v-6.52h.03l5.88,8.11h.9v-8.92c0-.42,.18-.54,.77-.64v-.21c-.5,0-1,.09-1.5,.09-.43,0-.85-.09-1.27-.09Z"/><path id="Path_3906" class="cls-1" d="M36.26,46.43v.21c.59,.09,.77,.21,.77,.64v8.08c0,.42-.18,.55-.77,.64v.21c.32,0,.94-.09,1.51-.09s1.19,.09,1.51,.09v-.21c-.59-.09-.77-.21-.77-.64v-8.08c0-.42,.18-.54,.77-.64v-.21c-.32,0-.94,.09-1.51,.09s-1.2-.09-1.51-.09Z"/><path id="Path_3907" class="cls-1" d="M46.38,46.43v.21c.3,.06,.71,.15,.71,.45-.03,.29-.1,.57-.2,.85l-2.16,6.5h-.03l-2.42-6.72c-.08-.21-.14-.43-.17-.65,0-.29,.2-.42,.77-.44v-.21c-.45,0-.88,.09-1.31,.09-.61,0-1.23-.09-1.83-.09v.21c.44-.03,.83,.26,.94,.68l3.33,8.88h1.01l2.97-8.74c.1-.44,.46-.76,.91-.82v-.21c-.38,0-.76,.09-1.13,.09-.45,0-.92-.09-1.37-.09Z"/><path id="Path_3908" class="cls-1" d="M54.76,55.26h-3.21v-3.81h2.15c.54,0,.85,.04,.95,.88h.3c-.12-.86-.12-1.74,0-2.6h-.3c-.11,.83-.41,.88-.95,.88h-2.15v-3.24h3.46c.66,0,1.18,.18,1.36,1.39h.3c-.06-.74-.09-1.5-.09-2.24h-7.29v.21c.59,.09,.77,.21,.77,.64v7.89c0,.42-.18,.55-.77,.64v.21h7.68c.02-.83,.08-1.65,.15-2.48h-.29c-.27,1.37-.81,1.63-2.08,1.63Z"/><path id="Path_3909" class="cls-1" d="M65.76,54.99l-2.78-3.6c1.46,.03,2.68-1.11,2.76-2.57,0-1.26-.71-2.3-2.72-2.3h-4.39v.21c.59,.09,.77,.21,.77,.64v7.98c0,.42-.18,.55-.77,.64v.21c.32,0,.94-.09,1.51-.09s1.2,.09,1.51,.09v-.21c-.59-.09-.77-.21-.77-.64v-7.98h.82c1.27,0,2.56,.21,2.56,1.65,0,1.33-1.1,1.98-2.68,1.98-.12,0-.28,.06-.28,.15,0,.06,.12,.2,.3,.44l1.95,2.62c1.23,1.71,1.38,1.95,1.54,2,.38,0,.77-.09,1.16-.09,.26,0,.52,.09,.79,.09v-.21c-.44-.05-.82-.43-1.27-1Z"/><path id="Path_3910" class="cls-1" d="M71.53,50.48c-1.86-.38-2.45-.55-2.45-1.63,0-.95,.83-1.73,2.46-1.73,1.16-.14,2.24,.62,2.51,1.75h.3c-.05-.7-.08-1.41-.06-2.1-.8-.33-1.65-.5-2.51-.5-2.43,0-4.01,1.3-4.01,2.8,0,1.85,1.41,2.31,4.01,2.83,1.05,.21,1.77,.45,1.77,1.66-.09,1.16-1.1,2.03-2.26,1.95-.03,0-.07,0-.1,0-1.4,.1-2.66-.84-2.97-2.21h-.3c.06,.79,.09,1.56,.09,2.34,.83,.49,1.79,.74,2.75,.71,2.82,0,4.08-1.42,4.08-3.1,0-2.02-1.43-2.39-3.32-2.77Z"/><path id="Path_3911" class="cls-1" d="M76.19,46.43v.21c.59,.09,.77,.21,.77,.64v8.08c0,.42-.18,.55-.77,.64v.21c.32,0,.94-.09,1.51-.09s1.19,.09,1.51,.09v-.21c-.59-.09-.77-.21-.77-.64v-8.08c0-.42,.18-.54,.77-.64v-.21c-.32,0-.94,.09-1.51,.09s-1.2-.09-1.51-.09Z"/><path id="Path_3912" class="cls-1" d="M79.74,46.52c-.04,.83-.13,1.65-.24,2.48h.3c.27-1.36,.7-1.63,1.54-1.63h1.39v7.74c0,.51-.18,.79-.95,.88v.21c.59,0,1.24-.09,1.7-.09s1.1,.09,1.69,.09v-.21c-.77-.09-.95-.36-.95-.88v-7.74h1.39c.85,0,1.27,.27,1.54,1.63h.3c-.1-.83-.2-1.65-.24-2.48h-7.48Z"/><path id="Path_3913" class="cls-1" d="M94.91,47.65c.36-.73,.56-.98,1.14-1.02v-.21c-.48,0-.85,.09-1.21,.09-.48,0-1.09-.09-1.48-.09v.21c.51,.03,.72,.14,.72,.39,0,.18-.03,.35-.1,.52l-1.92,4.05-2.06-4.02c-.11-.18-.17-.38-.18-.59,0-.24,.23-.33,.71-.35v-.21c-.53,0-1.05,.09-1.56,.09s-1.06-.09-1.6-.09v.21c.44,.06,.82,.35,.98,.77l2.72,4.99v2.71c0,.51-.18,.79-.95,.88v.21c.59,0,1.24-.09,1.7-.09s1.1,.09,1.69,.09v-.21c-.77-.09-.95-.36-.95-.88v-2.71l2.35-4.75Z"/><path id="Path_3914" class="cls-1" d="M67.61,38.85c8.6,0,14.11-7.34,14.11-14.81,0-6.34-3.82-14.11-13.46-14.11-7.85,.31-14.1,6.69-14.25,14.55,0,7.86,4.86,14.38,13.6,14.38Zm-.61-25.97c5.52,0,10.73,5.12,10.73,12.73,0,6.9-4.47,10.29-9.08,10.29-6.69,0-10.64-6.39-10.64-12.51,0-7.99,5.82-10.51,8.99-10.51h0Z"/><path id="Path_3915" class="cls-1" d="M99.86,10.62c-1.39,0-3.13-.26-4.26-.26v.61c1.48,.09,2.08,.39,2.08,1.13,.02,.51-.09,1.01-.3,1.48l-5.52,11.64-5.91-11.55c-.3-.52-.48-1.1-.52-1.69,0-.7,.65-.95,2.04-1v-.61c-1.52,0-3,.26-4.47,.26s-3.04-.26-4.6-.26v.61c1.28,.16,2.36,1.01,2.82,2.22l7.82,14.33v7.77c0,1.48-.52,2.26-2.74,2.52v.61c1.69,0,3.56-.26,4.86-.26s3.17,.26,4.86,.26v-.61c-2.21-.26-2.74-1.04-2.74-2.52v-7.77l6.78-13.64c1.04-2.08,1.61-2.82,3.26-2.91v-.61c-1.39,0-2.44,.26-3.48,.26Z"/><path id="Path_3916" class="cls-1" d="M19.48,34.01c0,2.04-.72,3.11-3.78,3.47v.84c2.34,0,4.91-.36,6.71-.36s4.36,.48,6.7,.48c0,0,2.21,0,3.25-.03,.91,0,2.69-.26,4.34-.26s3.43,.26,4.34,.26v-.8c-1.7-.26-2.22-.61-2.22-1.83V13.05h2.35c3.65,0,7.34,.61,7.34,4.74,0,3.82-3.17,5.69-7.69,5.69-.35,0-.83,.17-.83,.43,0,.17,.35,.57,.87,1.26l5.6,7.51c3.52,4.91,3.95,5.6,4.43,5.73,1.08,0,2.22-.26,3.34-.26,.74,0,1.48,.26,2.26,.26v-.61c-1.26-.13-2.34-1.22-3.65-2.87l-7.99-10.34c4.17-.35,7.91-2.95,7.91-7.39,0-3.61-2.04-6.6-7.82-6.6h-12.6v.61c1.69,.26,2.21,.61,2.21,1.82v21.15c0,2.08-.81,2.93-3.24,3.33-.74,.07-1.48,.05-2.21-.05-3.05-.36-3.77-1.2-3.77-3.27V3.35h5.51c3.35,0,5.03,1.08,6.1,6.47h1.2c-.42-3.29-.78-6.53-.96-9.82H7.62c-.18,3.29-.54,6.53-.96,9.82h1.2c1.08-5.39,2.75-6.47,6.11-6.47h5.51v30.66Z"/><path id="Path_3917" class="cls-1" d="M95.05,54.34h.67v2.02h.24v-2.02h.7v-.24h-1.61v.24Z"/><path id="Path_3918" class="cls-1" d="M97.95,55.93l-.58-1.83h-.39v2.26h.24v-1.92l.61,1.92h.24l.6-1.92v1.92h.24v-2.26h-.38l-.58,1.83Z"/></g><g id="lead_change_text"><g id="Group_1985" class="cls-2"><g id="Group_1983"><g id="Path_3933"><path class="cls-1" d="M51.49,65.75h2.24v3.8h4.37v-3.8h2.25v10.19h-2.25v-4.4h-4.36v4.4h-2.24v-10.19Z"/></g><g id="Path_3934"><path class="cls-1" d="M65.77,65.75h1.86l4.43,10.19h-2.53l-.88-2.16h-3.96l-.85,2.16h-2.48l4.4-10.19Zm.86,2.97l-1.24,3.17h2.49l-1.25-3.17Z"/></g><g id="Path_3935"><path class="cls-1" d="M73.08,65.75h3.05l4.33,7.08h.03v-7.08h2.25v10.19h-2.94l-4.45-7.26h-.03v7.26h-2.24v-10.19Z"/></g><g id="Path_3936"><path class="cls-1" d="M94.04,75.22c-.65,.34-1.35,.59-2.07,.75-.72,.15-1.46,.23-2.2,.23-.75,0-1.49-.12-2.2-.37-.65-.23-1.24-.6-1.74-1.07-.5-.48-.89-1.05-1.14-1.69-.55-1.43-.55-3.01,0-4.43,.26-.64,.65-1.21,1.14-1.69,.5-.47,1.09-.84,1.74-1.07,.71-.26,1.45-.38,2.2-.37,.76,0,1.52,.1,2.25,.3,.67,.19,1.29,.54,1.81,1.02l-1.58,1.73c-.29-.31-.65-.55-1.04-.72-.46-.18-.95-.26-1.44-.24-.45,0-.89,.08-1.3,.24-.38,.16-.72,.39-1,.68-.28,.3-.5,.66-.64,1.04-.3,.85-.3,1.78,0,2.63,.14,.39,.36,.74,.64,1.04,.28,.3,.62,.53,1,.68,.41,.17,.85,.25,1.3,.24,.43,0,.86-.05,1.27-.17,.29-.09,.58-.2,.85-.34v-1.66h-1.83v-2.07h3.99v5.33Z"/></g><g id="Path_3937"><path class="cls-1" d="M96.1,65.75h6.92v2.07h-4.68v1.9h4.42v2.07h-4.42v2.07h4.94v2.07h-7.18v-10.19Z"/></g></g><g id="Path_3938"><path class="cls-1" d="M48.39,73.03c-.22,.34-.52,.61-.88,.81-.38,.2-.8,.3-1.22,.29-.39,0-.78-.08-1.13-.24-.35-.16-.66-.39-.91-.68-.27-.3-.47-.66-.61-1.04-.3-.85-.3-1.78,0-2.63,.14-.38,.35-.74,.62-1.04,.54-.6,1.31-.94,2.11-.93,.38,0,.76,.07,1.11,.22,.32,.14,.59,.35,.81,.62l1.73-1.41c-.21-.27-.47-.51-.75-.71-.27-.19-.56-.34-.87-.46-.3-.11-.61-.2-.92-.25-.3-.05-.6-.08-.9-.08-.75,0-1.49,.12-2.2,.37-.65,.23-1.24,.6-1.74,1.07-.25,.24-.48,.51-.67,.8,.37,1.05,.44,2.18,.21,3.27-.13,.73-.35,1.43-.66,2.1,.26,.62,.64,1.18,1.12,1.65,.5,.47,1.09,.84,1.74,1.07,.71,.26,1.45,.38,2.2,.37,.7,0,1.4-.15,2.04-.43,.66-.29,1.23-.75,1.64-1.34l-1.87-1.39Z"/></g><g id="Path_3939"><path class="cls-1" d="M8.49,65.77h1.02l-1.72,9.25h4.2l-.16,.92H6.61l1.88-10.17Z"/></g><g id="Path_3940"><path class="cls-1" d="M14.95,65.77h5.56l-.16,.92h-4.55l-.69,3.66h4.4l-.16,.92h-4.4l-.7,3.75h4.55l-.16,.92h-5.56l1.88-10.17Z"/></g><g id="Path_3941"><path class="cls-1" d="M26.13,65.77h1.14l2.49,10.17h-1.11l-.84-3.42h-4.73l-2.12,3.42h-1.06l6.22-10.17Zm-2.49,5.83h3.94l-1.09-4.67-2.86,4.67Z"/></g><g id="Group_1984"><g id="Path_3942"><path class="cls-1" d="M33.08,65.77h2.97c1.11-.04,2.21,.26,3.16,.84,1.28,1.02,1.87,2.68,1.51,4.27-.38,1.78-1.51,3.32-3.09,4.22-1.07,.57-2.26,.85-3.46,.84h-2.96l1.88-10.17Zm-.7,9.25h1.47c1.27,.11,2.55-.18,3.66-.83,1.15-.78,1.95-1.99,2.21-3.35,.28-1.24-.15-2.54-1.11-3.37-.94-.63-2.07-.91-3.2-.78h-1.47l-1.55,8.33Z"/></g></g></g><g id="Rectangle_1343"><path class="cls-1" d="M110,83.19H0v-24H110v24ZM1,82.19H109v-22H1v22Z"/></g></g></svg>