<?xml version="1.0" encoding="UTF-8"?><svg id="Layer_1" xmlns="http://www.w3.org/2000/svg" viewBox="0 0 54 54"><defs><style>.cls-1,.cls-2{fill:none;}.cls-3{fill:#d9d9d6;}.cls-2{stroke:#d9d9d6;}</style></defs><g id="Ellipse_12"><circle class="cls-1" cx="27" cy="27" r="27"/><circle class="cls-2" cx="27" cy="27" r="26.5"/></g><path id="search" class="cls-3" d="M37.13,34.6l-4.06-4.06c-.18-.18-.43-.29-.69-.28h-.66c2.88-3.68,2.22-9-1.47-11.88-3.68-2.88-9-2.22-11.88,1.47-2.88,3.68-2.22,9,1.47,11.88,3.06,2.39,7.35,2.39,10.41,0v.66c0,.26,.1,.51,.28,.69l4.06,4.06c.38,.38,.99,.38,1.38,0h0l1.15-1.16c.38-.38,.38-1,0-1.38Zm-12.09-4.34c-2.88,0-5.21-2.33-5.21-5.21s2.33-5.21,5.21-5.21,5.21,2.33,5.21,5.21c0,2.88-2.33,5.21-5.2,5.21h0Z"/></svg>