<?xml version="1.0" encoding="UTF-8"?><svg id="Layer_1" xmlns="http://www.w3.org/2000/svg" viewBox="0 0 54 54"><defs><style>.cls-1,.cls-2{fill:none;}.cls-3{fill:#fff;}.cls-2{stroke:#d9d9d6;}.cls-4{opacity:0;}</style></defs><g id="hamburger_icon" transform="translate(-1364 -54)"><g id="Group_11120" transform="translate(1364 54)"><path id="Rectangle" class="cls-3" d="M14.61,15h24.78c1.44-.03,2.63,1.12,2.66,2.56,.03,1.44-1.12,2.63-2.56,2.66-.03,0-.07,0-.1,0H14.61c-1.44,.03-2.63-1.12-2.66-2.56-.03-1.44,1.12-2.63,2.56-2.66,.03,0,.07,0,.1,0Z"/><path id="Rectangle-2" class="cls-3" d="M20.61,24.39h18.78c1.44-.03,2.63,1.12,2.66,2.56,.03,1.44-1.12,2.63-2.56,2.66-.03,0-.07,0-.1,0H20.61c-1.44,.03-2.63-1.12-2.66-2.56-.03-1.44,1.12-2.63,2.56-2.66,.03,0,.07,0,.1,0Z"/><path id="Rectangle-3" class="cls-3" d="M26.61,33.78h12.78c1.44,0,2.61,1.17,2.61,2.61h0c0,1.44-1.17,2.61-2.61,2.61h-12.78c-1.44,0-2.61-1.17-2.61-2.61h0c0-1.44,1.17-2.61,2.61-2.61Z"/></g></g><g id="Ellipse_12" class="cls-4"><circle class="cls-1" cx="27" cy="27" r="27"/><circle class="cls-2" cx="27" cy="27" r="26.5"/></g></svg>