<?xml version="1.0" encoding="UTF-8"?><svg id="Layer_1" xmlns="http://www.w3.org/2000/svg" viewBox="0 0 54 54"><defs><style>.cls-1{fill:#fff;}.cls-2{fill:#910139;}</style></defs><g id="Ellipse_12"><circle class="cls-1" cx="27" cy="27" r="27"/><circle class="cls-1" cx="27" cy="27" r="26.5"/></g><path id="search" class="cls-2" d="M41.59,37.94l-5.85-5.85c-.26-.26-.62-.42-.99-.4h-.95c4.15-5.3,3.2-12.96-2.12-17.11-5.3-4.15-12.96-3.2-17.11,2.12-4.15,5.3-3.2,12.96,2.12,17.11,4.41,3.44,10.59,3.44,14.99,0v.95c0,.37,.14,.73,.4,.99l5.85,5.85c.55,.55,1.43,.55,1.99,0h0l1.66-1.67c.55-.55,.55-1.44,0-1.99h.01Zm-17.41-6.25c-4.15,0-7.5-3.36-7.5-7.5s3.36-7.5,7.5-7.5,7.5,3.36,7.5,7.5-3.36,7.5-7.49,7.5h-.01Z"/></svg>