<?xml version="1.0" encoding="UTF-8"?><svg id="Layer_1" xmlns="http://www.w3.org/2000/svg" viewBox="0 0 38 38"><defs><style>.cls-1{fill:#fff;}</style></defs><circle class="cls-1" cx="19" cy="15.98" r="6.44"/><path class="cls-1" d="M31.35,32.35c-3.31,2.89-7.64,4.64-12.37,4.64-4.26,0-8.2-1.42-11.35-3.81,1.2-5.51,6.1-9.63,11.97-9.63s10.27,3.71,11.76,8.8Z"/><path class="cls-1" d="M19,38C8.52,38,0,29.48,0,19S8.52,0,19,0s19,8.52,19,19-8.52,19-19,19Zm0-35.99C9.63,2.01,2.01,9.63,2.01,19s7.62,16.99,16.99,16.99,16.99-7.62,16.99-16.99S28.37,2.01,19,2.01Z"/><path class="cls-1" d="M19,38c-4.18,0-8.15-1.33-11.47-3.86C2.74,30.52,0,25,0,19,0,8.52,8.52,0,19,0s19,8.52,19,19c0,5.48-2.37,10.69-6.49,14.3-3.46,3.03-7.9,4.7-12.51,4.7Zm0-35.99C9.63,2.01,2.01,9.63,2.01,19c0,5.36,2.45,10.3,6.73,13.54,2.97,2.26,6.52,3.45,10.26,3.45,4.12,0,8.09-1.49,11.19-4.2,3.69-3.23,5.81-7.89,5.81-12.79,0-9.37-7.62-16.99-16.99-16.99Z"/></svg>